<?xml version="1.0" standalone="no"?>
<!DOCTYPE svg PUBLIC "-//W3C//DTD SVG 20010904//EN"
 "http://www.w3.org/TR/2001/REC-SVG-20010904/DTD/svg10.dtd">
<svg version="1.0" xmlns="http://www.w3.org/2000/svg"
 width="460.000000pt" height="460.000000pt" viewBox="0 0 460.000000 460.000000"
 preserveAspectRatio="xMidYMid meet">
<metadata>
Created by potrace 1.14, written by Peter Selinger 2001-2017
</metadata>
<g transform="translate(0.000000,460.000000) scale(0.100000,-0.100000)"
fill="#000000" stroke="none">
<path d="M0 2300 l0 -2300 1030 0 c635 0 1030 4 1030 9 0 10 -67 190 -150 405
-37 96 -40 110 -26 118 9 5 25 26 36 47 12 24 31 43 52 52 18 7 35 16 38 19
12 16 158 106 190 118 19 7 60 13 92 14 57 2 60 0 91 -36 18 -21 37 -53 44
-70 7 -17 12 -23 12 -13 1 15 4 15 23 5 12 -7 28 -18 34 -24 7 -6 26 -17 43
-23 20 -9 31 -21 33 -39 2 -18 11 -28 33 -35 17 -6 33 -14 36 -19 3 -5 28 -17
55 -27 58 -23 56 3 20 -261 -14 -107 -26 -205 -26 -217 l0 -23 955 0 955 0 0
2300 0 2300 -2300 0 -2300 0 0 -2300z m2435 1170 c-3 -5 -11 -10 -16 -10 -6 0
-7 5 -4 10 3 6 11 10 16 10 6 0 7 -4 4 -10z m159 3 c4 -5 11 -8 14 -9 4 0 14
-3 22 -7 40 -16 96 -26 119 -20 21 5 33 -4 86 -62 45 -50 65 -66 76 -60 59 37
81 -10 93 -203 2 -32 10 -60 21 -72 19 -21 44 -216 45 -347 0 -88 16 -104 25
-26 13 113 15 74 10 -197 -7 -373 -14 -401 -135 -555 -26 -33 -53 -71 -60 -85
-7 -13 -19 -31 -27 -38 -18 -19 -16 -58 7 -125 31 -88 28 -271 -6 -397 -30
-109 -61 -221 -75 -265 l-9 -31 -93 4 c-56 2 -126 -2 -179 -12 -78 -13 -92
-13 -123 0 -23 9 -35 10 -35 4 0 -7 -30 -11 -82 -11 -346 3 -396 1 -439 -13
-51 -18 -54 -15 -64 58 -10 77 -42 235 -69 344 -14 53 -28 114 -32 134 -7 44
11 159 35 224 l18 46 7 -78 c7 -86 43 -194 85 -258 14 -21 31 -47 37 -58 11
-19 12 -19 17 1 3 11 0 22 -7 25 -8 3 -7 7 2 14 11 7 11 10 -2 15 -19 7 -21
43 -4 53 8 5 9 2 4 -11 -4 -12 0 -22 14 -32 11 -8 18 -19 15 -24 -3 -5 1 -6 9
-3 12 5 13 11 6 24 -13 24 -13 30 1 30 5 0 8 -4 4 -9 -3 -5 -1 -12 5 -16 5 -3
10 -15 10 -26 0 -10 7 -19 15 -19 21 0 57 -21 74 -43 8 -11 21 -17 32 -14 15
4 19 0 19 -19 0 -28 15 -32 24 -7 5 12 9 14 18 5 16 -16 28 -15 28 3 0 22 27
18 33 -5 3 -12 14 -20 26 -20 15 0 19 4 14 17 -5 12 -2 15 10 10 12 -5 17 -1
17 13 0 11 -4 20 -10 20 -5 0 -10 -4 -10 -10 0 -5 -5 -10 -11 -10 -12 0 -39
25 -39 36 0 5 5 3 12 -4 21 -21 39 -14 32 13 -4 16 -2 25 6 25 6 0 14 -9 17
-20 7 -27 17 -25 33 5 9 17 17 22 23 16 7 -7 14 -5 21 4 9 12 18 13 46 5 28
-8 36 -7 43 6 6 11 17 13 38 9 23 -5 29 -3 29 10 0 9 5 13 11 10 10 -7 90 41
97 58 2 4 10 7 18 7 20 0 17 18 -3 22 -14 3 -9 9 17 23 28 15 31 20 16 23 -10
2 -21 0 -25 -5 -3 -5 -18 -9 -33 -10 -67 -4 -78 -6 -78 -15 0 -13 -109 -5
-118 9 -8 11 -43 27 -54 25 -4 -1 -12 7 -18 18 -6 11 -17 20 -25 20 -8 0 -15
3 -15 8 -1 4 -12 21 -26 37 -25 29 -25 29 -19 5 7 -24 7 -24 -9 -5 -8 11 -16
26 -16 33 0 6 -7 12 -16 12 -8 0 -12 5 -9 10 3 6 2 10 -3 10 -6 0 -13 11 -16
25 -6 24 -26 36 -26 15 0 -5 4 -10 9 -10 12 0 21 -39 11 -45 -4 -3 -10 1 -13
9 -3 8 -19 17 -36 21 -17 4 -31 13 -31 21 0 8 -4 14 -9 14 -5 0 -7 -10 -3 -22
3 -13 1 -19 -6 -14 -5 3 -22 2 -36 -4 -22 -8 -26 -7 -26 10 0 10 -11 27 -25
38 -14 11 -21 22 -15 24 6 2 -2 17 -19 33 -17 17 -31 35 -31 40 0 6 -16 34
-35 62 -19 29 -35 57 -35 63 0 6 -7 25 -16 43 -18 34 -28 147 -13 147 5 0 9
14 9 31 0 17 5 39 10 50 6 11 7 19 2 19 -13 0 -22 53 -12 64 9 9 -30 46 -49
46 -6 0 -11 12 -11 26 0 21 4 25 17 20 10 -4 14 -4 10 0 -4 4 -1 14 6 22 6 9
8 13 2 10 -6 -4 -10 16 -9 53 0 46 5 63 20 75 18 14 16 15 -24 10 -41 -6 -43
-5 -49 24 -3 17 -10 33 -14 36 -15 9 -11 74 5 74 9 0 12 7 9 21 -4 14 -12 19
-24 16 -11 -3 -19 0 -19 8 0 7 9 15 20 18 27 7 25 25 -2 30 -19 4 -18 4 5 6
16 0 26 5 22 11 -4 6 -10 8 -15 5 -5 -3 -11 -1 -15 4 -8 13 27 76 54 98 12 10
23 25 25 33 14 78 35 118 56 105 5 -3 10 3 10 14 0 12 -4 21 -10 21 -5 0 -10
5 -10 11 0 6 6 9 13 6 9 -3 13 5 12 27 0 42 22 77 43 69 15 -6 15 -5 3 10 -11
14 -11 17 1 17 8 0 19 -5 24 -10 15 -15 64 5 64 25 0 8 5 15 10 15 6 0 18 8
28 18 11 11 38 22 60 26 23 3 56 14 74 24 73 40 133 56 218 58 47 0 87 2 90 3
3 1 16 4 29 7 13 2 36 11 50 18 31 16 45 19 55 9z m-1174 -961 c21 -119 41
-167 72 -176 28 -7 35 22 9 40 -38 27 -61 86 -56 145 6 90 9 102 28 105 9 1
17 -2 17 -7 0 -6 4 -8 9 -4 15 8 25 -15 12 -28 -6 -6 -11 -19 -11 -28 0 -10
-7 -25 -16 -33 -9 -9 -12 -21 -7 -28 8 -14 9 -19 11 -60 2 -34 28 -60 53 -53
14 5 19 1 19 -13 0 -11 7 -25 15 -32 16 -13 21 -45 6 -35 -5 3 -9 -8 -9 -24 1
-19 8 -33 22 -39 18 -9 18 -11 4 -11 -16 -1 -23 -12 -19 -33 4 -24 -64 17 -92
54 -63 87 -98 222 -95 373 1 44 3 62 5 40 2 -22 13 -91 23 -153z m156 -47 c6
-41 23 -63 25 -32 0 6 9 -22 20 -63 11 -41 18 -86 16 -100 -3 -24 -3 -24 -11
5 -4 17 -11 38 -17 47 -5 10 -9 26 -9 37 0 10 -11 39 -25 62 -25 44 -33 89
-16 89 6 0 13 -20 17 -45z m481 -751 c-3 -3 -12 -4 -19 -1 -8 3 -5 6 6 6 11 1
17 -2 13 -5z m-2 -355 c11 -17 -1 -21 -15 -4 -8 9 -8 15 -2 15 6 0 14 -5 17
-11z m-515 -794 c0 -25 -3 -45 -8 -45 -4 0 -6 18 -4 40 5 47 -6 51 -36 11
l-22 -30 23 -4 c17 -3 16 -5 -8 -6 -20 -1 -43 -14 -72 -43 -39 -38 -43 -40
-43 -19 0 12 4 20 9 17 4 -3 37 23 72 59 35 35 70 64 77 64 8 1 12 -14 12 -44z"/>
<path d="M2705 2895 c-66 -16 -105 -34 -133 -61 -19 -18 -20 -23 -8 -33 15
-13 54 -7 98 15 15 8 35 16 45 17 22 5 47 14 91 33 18 8 55 14 82 14 27 0 52
5 56 12 5 8 -4 9 -33 5 -22 -4 -43 -4 -46 -1 -12 12 -103 11 -152 -1z"/>
<path d="M2021 2886 c-15 -18 -48 -21 -53 -6 -4 12 -108 -28 -108 -41 0 -5 -7
-9 -15 -9 -8 0 -15 -7 -15 -16 0 -10 -7 -14 -22 -12 -15 2 -22 -2 -20 -11 2
-7 -5 -22 -14 -32 -9 -10 -14 -25 -10 -34 3 -9 1 -25 -4 -35 -5 -10 -7 -26 -3
-36 5 -14 15 -16 72 -10 36 4 84 7 106 7 40 0 40 0 11 11 l-29 11 34 15 c46
20 224 33 292 20 29 -5 37 -4 37 8 0 8 7 14 16 14 14 0 16 -9 11 -59 -4 -45
-2 -58 7 -55 23 9 57 64 57 92 -1 63 -3 72 -13 72 -5 0 -8 7 -5 15 9 23 -19
68 -45 71 -13 2 -61 7 -108 13 -47 5 -103 12 -125 16 -31 5 -44 3 -54 -9z
m104 -70 c54 -15 53 -16 -15 -22 -93 -8 -129 -15 -140 -29 -7 -8 -18 -15 -26
-15 -7 0 -15 -8 -19 -17 -14 -43 -41 -61 -103 -68 -53 -6 -61 -5 -56 8 3 10
13 13 27 9 20 -5 21 -4 8 12 -13 15 -13 19 0 27 8 5 22 9 31 9 15 0 32 16 33
30 5 56 147 87 260 56z m-30 -76 c-3 -5 -15 -10 -26 -10 -10 0 -19 5 -19 10 0
6 12 10 26 10 14 0 23 -4 19 -10z"/>
<path d="M2970 2868 c0 -9 7 -22 17 -29 15 -13 15 -12 3 11 -17 34 -20 36 -20
18z"/>
<path d="M1805 2850 c-3 -5 1 -10 10 -10 9 0 13 5 10 10 -3 6 -8 10 -10 10 -2
0 -7 -4 -10 -10z"/>
<path d="M2705 2813 c-22 -3 -47 -10 -55 -17 -8 -8 -22 -16 -30 -19 -8 -3 -2
-6 14 -6 l29 -1 -27 -21 c-15 -12 -25 -23 -23 -26 6 -5 57 19 57 27 0 7 61 40
74 40 3 0 6 -10 6 -23 0 -21 3 -22 80 -19 54 3 85 0 95 -8 9 -7 18 -11 21 -8
9 9 -17 54 -39 68 -22 14 -126 20 -202 13z"/>
<path d="M2717 2663 c18 -2 50 -2 70 0 21 2 7 4 -32 4 -38 0 -55 -2 -38 -4z"/>
<path d="M2148 2643 c7 -3 16 -2 19 1 4 3 -2 6 -13 5 -11 0 -14 -3 -6 -6z"/>
<path d="M2302 2547 c-12 -13 -22 -29 -22 -35 0 -7 -4 -12 -10 -12 -5 0 -10
-6 -10 -14 0 -7 -7 -19 -15 -26 -22 -19 -18 -63 8 -88 13 -12 27 -19 30 -15 4
3 7 -1 7 -10 0 -12 7 -15 35 -10 21 3 41 1 50 -7 26 -22 79 -21 116 2 l34 21
-30 13 c-16 7 -40 24 -52 38 -25 28 -73 36 -73 12 0 -7 -11 -16 -25 -18 -19
-4 -23 -2 -15 7 8 9 3 14 -19 18 -29 6 -29 7 -19 47 7 28 16 40 28 40 23 0 42
24 34 44 -9 22 -27 20 -52 -7z"/>
<path d="M2773 2446 c14 -11 93 -151 96 -171 1 -3 1 -13 2 -22 0 -15 2 -15 7
-3 3 8 11 -14 18 -50 9 -51 13 -60 19 -42 4 12 10 22 14 22 10 0 11 73 1 85
-5 6 -9 15 -9 20 -1 21 -137 175 -155 175 -6 0 -3 -7 7 -14z"/>
<path d="M2596 2405 c-11 -8 -17 -17 -14 -20 10 -10 59 7 55 18 -5 17 -20 18
-41 2z"/>
<path d="M1840 2334 c0 -8 5 -12 10 -9 6 3 10 10 10 16 0 5 -4 9 -10 9 -5 0
-10 -7 -10 -16z"/>
<path d="M2340 2304 c0 -8 5 -12 10 -9 6 4 8 11 5 16 -9 14 -15 11 -15 -7z"/>
<path d="M2300 2299 c0 -5 5 -7 10 -4 6 3 10 8 10 11 0 2 -4 4 -10 4 -5 0 -10
-5 -10 -11z"/>
<path d="M2016 2245 c-18 -27 -14 -45 9 -45 8 0 13 8 13 18 0 9 3 25 7 35 11
26 -10 20 -29 -8z"/>
<path d="M2050 2219 c0 -5 5 -7 10 -4 6 3 10 8 10 11 0 2 -4 4 -10 4 -5 0 -10
-5 -10 -11z"/>
<path d="M2600 2203 c-51 -9 -39 -20 21 -19 60 1 62 0 81 -32 13 -24 15 -38 8
-51 -16 -31 -53 -49 -89 -43 -18 2 -36 0 -40 -6 -5 -9 -45 -12 -199 -13 -26 0
-35 5 -39 22 -6 21 -7 21 -19 4 -9 -12 -19 -15 -31 -10 -10 5 -31 9 -46 9 -15
1 -32 8 -37 16 -15 23 -12 34 5 20 13 -10 15 -9 15 9 0 11 5 21 10 21 6 0 10
-4 10 -10 0 -18 18 -11 25 10 7 23 57 40 63 22 2 -7 10 -12 18 -12 9 0 13 4
10 9 -3 5 29 10 72 13 43 2 86 9 97 15 16 9 10 11 -33 8 -28 -2 -52 1 -52 6 0
16 -197 10 -257 -7 -43 -12 -61 -14 -80 -5 -32 15 -33 14 -26 -6 6 -17 5 -17
-14 0 -21 18 -43 23 -43 8 0 -5 6 -11 13 -14 6 -2 9 -8 5 -12 -5 -5 -17 0 -28
10 -34 31 -22 -2 14 -37 44 -43 132 -110 173 -132 44 -22 152 -33 163 -16 5 8
45 16 109 21 55 5 123 18 152 28 50 20 51 20 46 0 -9 -33 11 -21 88 52 74 71
87 89 63 89 -7 0 -24 9 -38 20 -20 15 -40 19 -95 18 -38 0 -81 -3 -95 -5z
m-240 -213 c0 -13 -11 -13 -30 0 -12 8 -11 10 8 10 12 0 22 -4 22 -10z"/>
<path d="M2873 2193 c-15 -5 -17 -23 -4 -23 5 0 11 7 15 15 3 8 4 15 3 14 -1
0 -8 -3 -14 -6z"/>
<path d="M1855 2144 c6 -52 15 -55 15 -6 0 23 -4 42 -10 42 -6 0 -8 -16 -5
-36z"/>
<path d="M1901 2134 c0 -11 3 -14 6 -6 3 7 2 16 -1 19 -3 4 -6 -2 -5 -13z"/>
<path d="M1882 2080 c0 -14 2 -19 5 -12 2 6 2 18 0 25 -3 6 -5 1 -5 -13z"/>
<path d="M2212 1954 c-26 -19 -3 -36 55 -40 37 -3 42 -2 23 5 -14 5 -20 10
-15 10 6 1 2 6 -8 12 -9 6 -15 14 -13 18 8 12 -23 9 -42 -5z"/>
<path d="M2736 1623 c-6 -14 -5 -15 5 -6 7 7 10 15 7 18 -3 3 -9 -2 -12 -12z"/>
<path d="M2010 1290 c0 -5 5 -10 11 -10 5 0 7 5 4 10 -3 6 -8 10 -11 10 -2 0
-4 -4 -4 -10z"/>
<path d="M2317 1253 c-4 -3 -7 -13 -7 -22 1 -13 3 -13 11 2 11 19 8 33 -4 20z"/>
<path d="M2020 1187 c0 -3 18 -20 40 -37 22 -17 40 -29 40 -27 0 3 -18 20 -40
37 -22 17 -40 29 -40 27z"/>
</g>
</svg>
